<svg width="512" height="512" viewBox="0 0 512 512" fill="none" xmlns="http://www.w3.org/2000/svg">
<rect width="512" height="512" fill="#10121E"/>
<g clip-path="url(#clip0_6915_6722)">
<path d="M73.1577 276.751L82.1037 255.453L82.0932 255.432L82.0937 255.43L71.8682 234.88L73.3369 234.48L94.2806 228.766L104.14 206.923L104.768 205.531L106.009 206.423L125.82 220.666L149.178 214.267L150.827 213.817L150.757 215.525L149.768 239.717L168.188 253.462L169.454 254.407L168.246 255.421L150.565 270.278L150.565 270.283L150.532 270.311L149.809 294.458L149.765 295.939L148.312 295.646L125.558 291.051L108.324 304.756L107.115 305.717L95.8676 283.113L95.8663 283.113L95.8485 283.077L74.0518 278.458L72.5728 278.145L73.1577 276.751ZM152.963 220.27L166.895 248.27L166 248.716L152.068 220.716L152.963 220.27ZM147.349 237.657L148.189 217.132L128.288 222.583L147.349 237.657ZM165.43 254.523L149.816 242.874L150.477 267.085L165.43 254.523ZM165.887 260.201L166.337 260.42L166.787 260.638L152.248 290.582L151.348 290.146L165.887 260.201ZM110.453 207.268L110.552 206.778L143.207 213.413L143.007 214.394L110.353 207.758L110.453 207.268ZM97.5499 280.882L97.603 280.989L124.902 288.269L148.032 269.134L147.264 240.969L147.216 240.932L147.224 240.745L125.286 223.396L96.0658 230.881L84.8626 255.386L97.5486 280.881L97.5499 280.882ZM122.675 221.484L105.79 209.345L97.386 227.962L122.675 221.484ZM147.354 292.902L147.967 272.434L127.957 288.984L147.354 292.902ZM114.108 304.409L143.515 297.579L143.629 298.065L143.742 298.552L114.335 305.383L114.108 304.409ZM98.321 208.879L98.6601 209.247L98.9996 209.614L77.2326 229.719L76.5553 228.985L98.321 208.879ZM122.57 290.233L99.0869 283.971L107.977 301.837L122.57 290.233ZM92.9301 231.726L75.462 236.49L83.4305 252.505L92.9301 231.726ZM94.4273 280.22L83.5741 258.408L76.0475 276.326L94.4273 280.22ZM72.2286 240.922L73.2286 240.946L72.4919 271.217L71.4919 271.193L72.2286 240.922ZM77.8031 281.527L102.634 301.071L102.326 301.463L102.016 301.856L77.184 282.313L77.8031 281.527Z" fill="url(#paint0_linear_6915_6722)"/>
</g>
<path d="M456.056 245.57L453.376 238.55H454.856L457.256 244.95H456.456L458.876 238.55H460.256L457.656 245.57H456.056ZM448.116 245.57V238.57H449.816V245.57H448.116ZM446.056 240.07V238.55H451.876V240.07H446.056ZM452.776 245.57V238.55H454.376V245.57H452.776ZM459.336 245.57V238.55H460.936V245.57H459.336Z" fill="white"/>
<path d="M204.744 290L186.979 222.55H195.909L209.779 278.79L223.554 222.55H232.864L246.734 278.79L260.509 222.55H269.534L251.769 290H241.509L228.209 237.75L214.909 290H204.744ZM293.785 291.14C289.162 291.14 285.108 290.063 281.625 287.91C278.142 285.757 275.45 282.717 273.55 278.79C271.65 274.8 270.7 270.145 270.7 264.825C270.7 259.442 271.65 254.787 273.55 250.86C275.45 246.933 278.142 243.893 281.625 241.74C285.108 239.587 289.162 238.51 293.785 238.51C298.408 238.51 302.43 239.587 305.85 241.74C309.333 243.893 312.025 246.933 313.925 250.86C315.825 254.787 316.775 259.442 316.775 264.825C316.775 270.145 315.825 274.8 313.925 278.79C312.025 282.717 309.333 285.757 305.85 287.91C302.43 290.063 298.408 291.14 293.785 291.14ZM293.785 283.54C298.408 283.54 301.987 281.893 304.52 278.6C307.117 275.243 308.415 270.652 308.415 264.825C308.415 258.998 307.117 254.438 304.52 251.145C301.987 247.788 298.408 246.11 293.785 246.11C289.162 246.11 285.552 247.788 282.955 251.145C280.358 254.438 279.06 258.998 279.06 264.825C279.06 270.652 280.358 275.243 282.955 278.6C285.552 281.893 289.162 283.54 293.785 283.54ZM324.8 290V239.65H331.83L332.21 252.38L331.45 252.095C332.084 247.788 333.445 244.653 335.535 242.69C337.689 240.663 340.539 239.65 344.085 239.65H349.025V247.25H344.18C341.647 247.25 339.525 247.725 337.815 248.675C336.169 249.562 334.902 250.923 334.015 252.76C333.192 254.533 332.78 256.813 332.78 259.6V290H324.8ZM355.071 290V222.55H363.051V266.725L387.561 239.65H398.201L378.346 261.025L399.056 290H389.366L372.931 266.44L363.051 276.89V290H355.071ZM421.859 291.14C417.363 291.14 413.531 290.412 410.364 288.955C407.261 287.498 404.823 285.503 403.049 282.97C401.339 280.373 400.358 277.428 400.104 274.135L408.464 273.565C408.971 276.605 410.269 279.043 412.359 280.88C414.449 282.653 417.616 283.54 421.859 283.54C425.279 283.54 428.003 283.002 430.029 281.925C432.119 280.785 433.164 278.98 433.164 276.51C433.164 275.18 432.848 274.072 432.214 273.185C431.581 272.298 430.346 271.538 428.509 270.905C426.673 270.208 423.949 269.543 420.339 268.91C415.526 268.023 411.726 266.947 408.939 265.68C406.216 264.35 404.253 262.735 403.049 260.835C401.909 258.872 401.339 256.56 401.339 253.9C401.339 249.403 402.986 245.73 406.279 242.88C409.573 239.967 414.259 238.51 420.339 238.51C424.456 238.51 427.908 239.27 430.694 240.79C433.544 242.247 435.761 244.21 437.344 246.68C438.991 249.087 440.068 251.747 440.574 254.66L432.214 255.23C431.834 253.457 431.138 251.905 430.124 250.575C429.111 249.182 427.781 248.105 426.134 247.345C424.488 246.522 422.524 246.11 420.244 246.11C416.634 246.11 413.974 246.807 412.264 248.2C410.554 249.593 409.699 251.367 409.699 253.52C409.699 255.167 410.079 256.528 410.839 257.605C411.663 258.618 412.961 259.473 414.734 260.17C416.508 260.803 418.883 261.373 421.859 261.88C426.989 262.767 430.979 263.843 433.829 265.11C436.679 266.377 438.674 267.928 439.814 269.765C440.954 271.602 441.524 273.85 441.524 276.51C441.524 279.613 440.638 282.273 438.864 284.49C437.154 286.643 434.811 288.29 431.834 289.43C428.921 290.57 425.596 291.14 421.859 291.14Z" fill="white"/>
<defs>
<linearGradient id="paint0_linear_6915_6722" x1="59.6619" y1="252.197" x2="118.386" y2="222.591" gradientUnits="userSpaceOnUse">
<stop stop-color="#D542FD"/>
<stop offset="1" stop-color="#39C1FE"/>
</linearGradient>
<clipPath id="clip0_6915_6722">
<rect width="133.368" height="134.389" fill="white" transform="translate(50.001 188.805)"/>
</clipPath>
</defs>
</svg>
